<svg width="229" height="88" viewBox="0 0 229 88" fill="none" xmlns="http://www.w3.org/2000/svg">
<g filter="url(#filter0_d)">
<path d="M104.379 49.1445C104.379 53.0586 103.77 56.5625 102.551 59.6562C101.355 62.7266 99.7148 65.3281 97.6289 67.4609C95.543 69.5703 93.1055 71.1875 90.3164 72.3125C87.5508 73.4375 84.5977 74 81.457 74C79.3945 74 77.3672 73.7539 75.375 73.2617C73.4062 72.7695 71.5312 72.0547 69.75 71.1172C67.9922 70.1797 66.3633 69.043 64.8633 67.707C63.3633 66.3477 62.0742 64.8008 60.9961 63.0664C59.918 61.3086 59.0742 59.3867 58.4648 57.3008C57.8555 55.1914 57.5508 52.9297 57.5508 50.5156C57.5508 46.7656 58.1602 43.3086 59.3789 40.1445C60.6211 36.957 62.332 34.2031 64.5117 31.8828C66.7148 29.5625 69.3047 27.7461 72.2812 26.4336C75.2812 25.1211 78.5391 24.4648 82.0547 24.4648C85.0078 24.4648 87.832 25.0156 90.5273 26.1172C93.2227 27.1953 95.5898 28.7891 97.6289 30.8984C99.6914 33.0078 101.332 35.5977 102.551 38.668C103.77 41.7148 104.379 45.207 104.379 49.1445ZM94.9219 49.8125C94.9219 46.9062 94.4297 44.3633 93.4453 42.1836C92.4609 39.9805 91.1836 38.1406 89.6133 36.6641C88.043 35.1875 86.2617 34.0859 84.2695 33.3594C82.2773 32.6094 80.2852 32.2344 78.293 32.2344C75.9961 32.2344 73.8633 32.6562 71.8945 33.5C69.9258 34.3438 68.2148 35.5625 66.7617 37.1562C65.3086 38.7266 64.1602 40.6484 63.3164 42.9219C62.4961 45.1719 62.0859 47.7031 62.0859 50.5156C62.0859 53.1875 62.4961 55.5664 63.3164 57.6523C64.1367 59.7383 65.2617 61.5078 66.6914 62.9609C68.1211 64.3906 69.7852 65.4922 71.6836 66.2656C73.6055 67.0156 75.6445 67.3906 77.8008 67.3906C79.9805 67.3906 82.0898 67.0156 84.1289 66.2656C86.1914 65.4922 88.0195 64.3672 89.6133 62.8906C91.2305 61.3906 92.5195 59.5508 93.4805 57.3711C94.4414 55.168 94.9219 52.6484 94.9219 49.8125ZM130.148 24.8164C132.539 24.8164 134.824 25.2383 137.004 26.082C139.184 26.9023 141 28.1094 142.453 29.7031L151.031 22.8828L141.223 43.9062L140.379 33.6758C139.605 32.7383 138.785 32 137.918 31.4609C137.051 30.9219 136.207 30.5234 135.387 30.2656C134.59 29.9844 133.863 29.8086 133.207 29.7383C132.574 29.668 132.082 29.6328 131.73 29.6328C129.832 29.6328 128.062 30.1133 126.422 31.0742C124.805 32.0352 123.398 33.418 122.203 35.2227C121.008 37.0039 120.059 39.1602 119.355 41.6914C118.676 44.2227 118.336 47.0469 118.336 50.1641C118.336 53.2812 118.676 56.1289 119.355 58.707C120.059 61.2852 120.996 63.5 122.168 65.3516C123.363 67.2031 124.758 68.6445 126.352 69.6758C127.945 70.6836 129.645 71.1875 131.449 71.1875C133.277 71.1875 134.848 70.7422 136.16 69.8516C137.473 68.9375 138.551 67.7891 139.395 66.4062C140.238 65.0234 140.848 63.5117 141.223 61.8711C141.621 60.2305 141.82 58.6602 141.82 57.1602C141.82 56.832 141.82 56.5273 141.82 56.2461C141.82 55.9414 141.797 55.625 141.75 55.2969C143.273 56.3047 144.387 57.4531 145.09 58.7422C145.816 60.0078 146.18 61.3203 146.18 62.6797C146.18 63.9453 145.863 65.293 145.23 66.7227C144.621 68.1289 143.707 69.4414 142.488 70.6602C141.27 71.8555 139.77 72.8516 137.988 73.6484C136.207 74.4219 134.145 74.8086 131.801 74.8086C129.902 74.8086 128.016 74.6094 126.141 74.2109C124.266 73.8125 122.473 73.2031 120.762 72.3828C119.051 71.5391 117.457 70.4727 115.98 69.1836C114.504 67.8945 113.227 66.3594 112.148 64.5781C111.07 62.7969 110.215 60.7461 109.582 58.4258C108.973 56.1055 108.668 53.5156 108.668 50.6562C108.668 47.8672 108.949 45.3008 109.512 42.957C110.098 40.5898 110.895 38.457 111.902 36.5586C112.934 34.6367 114.129 32.9492 115.488 31.4961C116.871 30.0195 118.348 28.7891 119.918 27.8047C121.512 26.8203 123.176 26.082 124.91 25.5898C126.668 25.0742 128.414 24.8164 130.148 24.8164ZM168.152 26.3984C169.746 26.3984 171.27 26.5508 172.723 26.8555C174.199 27.1367 175.57 27.5234 176.836 28.0156C178.102 28.4844 179.25 29.0234 180.281 29.6328C181.312 30.2422 182.191 30.8516 182.918 31.4609L192.059 25.168L181.547 45.3477L180.738 34.7656C180.059 34.2969 179.32 33.8867 178.523 33.5352C177.75 33.1602 176.965 32.8555 176.168 32.6211C175.395 32.3633 174.645 32.1641 173.918 32.0234C173.191 31.8594 172.547 31.7305 171.984 31.6367C171.422 31.543 170.965 31.4844 170.613 31.4609C170.285 31.4141 170.109 31.3906 170.086 31.3906C168.492 31.3906 167.156 31.5664 166.078 31.918C165 32.2695 164.121 32.7266 163.441 33.2891C162.785 33.8516 162.305 34.4961 162 35.2227C161.719 35.9258 161.578 36.6406 161.578 37.3672C161.578 38.8438 161.883 40.0977 162.492 41.1289C163.102 42.1367 164.027 43.0391 165.27 43.8359C166.512 44.6328 168.094 45.3828 170.016 46.0859C171.938 46.7656 174.199 47.5039 176.801 48.3008C178.371 48.793 179.848 49.4609 181.23 50.3047C182.637 51.125 183.855 52.0977 184.887 53.2227C185.918 54.3242 186.727 55.5664 187.312 56.9492C187.922 58.3086 188.227 59.7734 188.227 61.3438C188.227 63.1719 187.969 64.8008 187.453 66.2305C186.938 67.6367 186.246 68.8789 185.379 69.957C184.535 71.0117 183.551 71.9141 182.426 72.6641C181.301 73.3906 180.129 73.9766 178.91 74.4219C177.715 74.8906 176.496 75.2188 175.254 75.4062C174.035 75.6172 172.887 75.7227 171.809 75.7227C168.645 75.7227 165.773 75.1836 163.195 74.1055C160.617 73.0273 158.215 71.5508 155.988 69.6758L146.848 75.9336L157.043 57.8633C157.324 59.5508 157.816 61.1797 158.52 62.75C159.246 64.2969 160.137 65.6797 161.191 66.8984C162.246 68.1172 163.465 69.0898 164.848 69.8164C166.23 70.543 167.742 70.9062 169.383 70.9062C170.695 70.9062 171.891 70.707 172.969 70.3086C174.07 69.9102 175.008 69.3828 175.781 68.7266C176.555 68.0469 177.152 67.2734 177.574 66.4062C178.02 65.5156 178.242 64.5898 178.242 63.6289C178.242 62.293 177.867 61.1445 177.117 60.1836C176.367 59.1992 175.383 58.332 174.164 57.582C172.945 56.8086 171.551 56.1055 169.98 55.4727C168.434 54.8164 166.84 54.1484 165.199 53.4688C163.559 52.7891 161.953 52.0391 160.383 51.2188C158.836 50.3984 157.453 49.4375 156.234 48.3359C155.016 47.2109 154.031 45.8984 153.281 44.3984C152.531 42.8984 152.156 41.1289 152.156 39.0898C152.156 37.5195 152.461 35.9844 153.07 34.4844C153.703 32.9609 154.664 31.6016 155.953 30.4062C157.266 29.2109 158.93 28.25 160.945 27.5234C162.961 26.7734 165.363 26.3984 168.152 26.3984Z" fill="#1E0202"/>
</g>
<g filter="url(#filter1_f)">
<path fill-rule="evenodd" clip-rule="evenodd" d="M38.1651 4H31.3685V7.21368C25.8609 8.08583 21.7734 11.3063 21.7734 15.1457C21.7734 16.8147 22.5458 18.3667 23.8715 19.6597H23.0345V23.3619H12.5655C12.5655 28.8143 16.9856 33.2344 22.438 33.2344H23.0345V63.4689H12.5655V73.3414H56.3446V63.4689H45.8758V33.2344H46.4722C51.9246 33.2344 56.3447 28.8143 56.3447 23.3619H45.8758V19.6597H44.8626C46.1883 18.3667 46.9607 16.8147 46.9607 15.1457C46.9607 11.4945 43.2642 8.40307 38.1651 7.35867V4ZM4 83.2139C4 77.7614 8.42007 73.3414 13.8725 73.3414H55.0377C60.4901 73.3414 64.9102 77.7614 64.9102 83.2139H4Z" fill="black"/>
</g>
<g filter="url(#filter2_i)">
<path fill-rule="evenodd" clip-rule="evenodd" d="M42.4819 41.7032C42.4819 43.8233 41.3893 45.7313 39.6466 47.0595V48.9688H41.3611V52.8962H39.6466V70.5696H44.3723V76.8534H42.3537C45.8185 76.8601 48.6252 79.6709 48.6252 83.1373H18.3818C18.3818 79.6709 21.1885 76.8601 24.6533 76.8534H22.6349V70.5696H27.8328V52.8962H26.0412V48.9688H27.8328V47.0595C26.09 45.7313 24.9974 43.8233 24.9974 41.7032C24.9974 37.6904 28.9115 34.4374 33.7397 34.4374C38.5679 34.4374 42.4819 37.6904 42.4819 41.7032Z" fill="white"/>
</g>
<defs>
<filter id="filter0_d" x="14" y="9" width="219" height="82" filterUnits="userSpaceOnUse" color-interpolation-filters="sRGB">
<feFlood flood-opacity="0" result="BackgroundImageFix"/>
<feColorMatrix in="SourceAlpha" type="matrix" values="0 0 0 0 0 0 0 0 0 0 0 0 0 0 0 0 0 0 127 0"/>
<feOffset dy="4"/>
<feGaussianBlur stdDeviation="2"/>
<feColorMatrix type="matrix" values="0 0 0 0 0 0 0 0 0 0 0 0 0 0 0 0 0 0 0.25 0"/>
<feBlend mode="normal" in2="BackgroundImageFix" result="effect1_dropShadow"/>
<feBlend mode="normal" in="SourceGraphic" in2="effect1_dropShadow" result="shape"/>
</filter>
<filter id="filter1_f" x="0" y="0" width="68.9102" height="87.2139" filterUnits="userSpaceOnUse" color-interpolation-filters="sRGB">
<feFlood flood-opacity="0" result="BackgroundImageFix"/>
<feBlend mode="normal" in="SourceGraphic" in2="BackgroundImageFix" result="shape"/>
<feGaussianBlur stdDeviation="2" result="effect1_foregroundBlur"/>
</filter>
<filter id="filter2_i" x="18.3818" y="34.4374" width="30.2433" height="52.6998" filterUnits="userSpaceOnUse" color-interpolation-filters="sRGB">
<feFlood flood-opacity="0" result="BackgroundImageFix"/>
<feBlend mode="normal" in="SourceGraphic" in2="BackgroundImageFix" result="shape"/>
<feColorMatrix in="SourceAlpha" type="matrix" values="0 0 0 0 0 0 0 0 0 0 0 0 0 0 0 0 0 0 127 0" result="hardAlpha"/>
<feOffset dy="4"/>
<feGaussianBlur stdDeviation="2"/>
<feComposite in2="hardAlpha" operator="arithmetic" k2="-1" k3="1"/>
<feColorMatrix type="matrix" values="0 0 0 0 0 0 0 0 0 0 0 0 0 0 0 0 0 0 0.25 0"/>
<feBlend mode="normal" in2="shape" result="effect1_innerShadow"/>
</filter>
</defs>
</svg>
